# xmcd
#
# Track frame offsets:
#	182
#	20225
#	41680
#	63832
#	86965
#	110472
#	125347
#	141705
#	158575
#	186210
#	201777
#	221842
#	235580
#
# Disc length: 3341 seconds
#
# Revision: 3
# Processed by: cddbd v1.4PL0 Copyright (c) Steve Scherf et al.
# Submitted via: audiograbber 1.82.01
#
DISCID=c00d0b0d
DTITLE=Michael Feinstein - Such Sweet Sorrow
DYEAR=1995
DGENRE=Vocal - Traditional Pop
TTITLE0=Let's Face the Music and Dance
TTITLE1=Easy to Love
TTITLE2=Wind in the Willow
TTITLE3=I See Your Face Before Me
TTITLE4=Body and Soul
TTITLE5=For Love Alone
TTITLE6=Theme from The Bad and the Beautiful
TTITLE7=Such Sweet Sorrow
TTITLE8=Love is Just Around the Corner
TTITLE9=I'm a Dreamer, Aren't We All
TTITLE10=But Beautiful
TTITLE11=Wasn't There a Moment
TTITLE12=And So to Bed
EXTD=
EXTT0=
EXTT1=
EXTT2=
EXTT3=
EXTT4=
EXTT5=
EXTT6=
EXTT7=
EXTT8=
EXTT9=
EXTT10=
EXTT11=
EXTT12=
PLAYORDER=
